# MagicaVoxel @ Ephtracy

# group
g plant

# material
mtllib plant.mtl
usemtl palette

# normals
vn -1 0 0
vn 1 0 0
vn 0 0 1
vn 0 0 -1
vn 0 -1 0
vn 0 1 0

# texcoords
vt 0.306641 0.5
vt 0.537109 0.5
vt 0.560547 0.5
vt 0.880859 0.5

# verts
v -4 2 2
v -4 2 -3
v -4 4 2
v -4 4 -3
v -3 0 2
v -3 0 -3
v -3 2 3
v -3 2 2
v -3 2 -3
v -3 2 -4
v -3 4 3
v -3 4 2
v -3 4 -3
v -3 4 -4
v -1 4 -0
v -1 4 -1
v -1 6 -1
v -1 6 -2
v -1 7 1
v -1 7 -0
v -1 7 -1
v -1 7 -2
v -1 8 1
v -1 8 -0
v -1 9 -0
v -1 9 -1
v 0 4 -0
v 0 4 -1
v 0 6 -1
v 0 6 -2
v 0 7 1
v 0 7 -0
v 0 7 -1
v 0 7 -2
v 0 8 1
v 0 8 -0
v 0 9 -0
v 0 9 -1
v 2 0 2
v 2 0 -3
v 2 2 3
v 2 2 2
v 2 2 -3
v 2 2 -4
v 2 4 3
v 2 4 2
v 2 4 -3
v 2 4 -4
v 3 2 2
v 3 2 -3
v 3 4 2
v 3 4 -3
v -3 2 3
v -3 4 3
v 2 2 3
v 2 4 3
v -4 2 2
v -4 4 2
v -3 0 2
v -3 2 2
v -3 4 2
v 2 0 2
v 2 2 2
v 2 4 2
v 3 2 2
v 3 4 2
v -1 7 1
v -1 8 1
v 0 7 1
v 0 8 1
v -1 4 -0
v -1 7 -0
v -1 8 -0
v -1 9 -0
v 0 4 -0
v 0 7 -0
v 0 8 -0
v 0 9 -0
v -1 4 -1
v -1 6 -1
v -1 7 -1
v -1 9 -1
v 0 4 -1
v 0 6 -1
v 0 7 -1
v 0 9 -1
v -1 6 -2
v -1 7 -2
v 0 6 -2
v 0 7 -2
v -4 2 -3
v -4 4 -3
v -3 0 -3
v -3 2 -3
v -3 4 -3
v 2 0 -3
v 2 2 -3
v 2 4 -3
v 3 2 -3
v 3 4 -3
v -3 2 -4
v -3 4 -4
v 2 2 -4
v 2 4 -4
v -3 0 2
v 2 0 2
v -3 0 -3
v 2 0 -3
v -3 2 3
v 2 2 3
v -4 2 2
v -3 2 2
v 2 2 2
v 3 2 2
v -4 2 -3
v -3 2 -3
v 2 2 -3
v 3 2 -3
v -3 2 -4
v 2 2 -4
v -1 6 -1
v 0 6 -1
v -1 6 -2
v 0 6 -2
v -1 7 1
v 0 7 1
v -1 7 -0
v 0 7 -0
v -3 4 3
v 2 4 3
v -4 4 2
v -3 4 2
v 2 4 2
v 3 4 2
v -1 4 -0
v 0 4 -0
v -1 4 -1
v 0 4 -1
v -4 4 -3
v -3 4 -3
v 2 4 -3
v 3 4 -3
v -3 4 -4
v 2 4 -4
v -1 7 -1
v 0 7 -1
v -1 7 -2
v 0 7 -2
v -1 8 1
v 0 8 1
v -1 8 -0
v 0 8 -0
v -1 9 -0
v 0 9 -0
v -1 9 -1
v 0 9 -1

# faces
f 3/3/1 2/3/1 1/3/1
f 4/3/1 2/3/1 3/3/1
f 8/3/1 6/3/1 5/3/1
f 9/3/1 6/3/1 8/3/1
f 11/3/1 8/3/1 7/3/1
f 12/3/1 8/3/1 11/3/1
f 13/3/1 10/3/1 9/3/1
f 14/3/1 10/3/1 13/3/1
f 17/4/1 16/4/1 15/4/1
f 20/4/1 17/4/1 15/4/1
f 20/4/1 18/4/1 17/4/1
f 21/4/1 18/4/1 20/4/1
f 22/4/1 18/4/1 21/4/1
f 23/4/1 20/4/1 19/4/1
f 23/4/1 21/4/1 20/4/1
f 24/4/1 21/4/1 23/4/1
f 25/4/1 21/4/1 24/4/1
f 26/4/1 21/4/1 25/4/1
f 27/4/2 28/4/2 29/4/2
f 27/4/2 29/4/2 32/4/2
f 29/4/2 30/4/2 32/4/2
f 32/4/2 30/4/2 33/4/2
f 33/4/2 30/4/2 34/4/2
f 31/4/2 32/4/2 35/4/2
f 32/4/2 33/4/2 35/4/2
f 35/4/2 33/4/2 36/4/2
f 36/4/2 33/4/2 37/4/2
f 37/4/2 33/4/2 38/4/2
f 39/3/2 40/3/2 42/3/2
f 42/3/2 40/3/2 43/3/2
f 41/3/2 42/3/2 45/3/2
f 45/3/2 42/3/2 46/3/2
f 43/3/2 44/3/2 47/3/2
f 47/3/2 44/3/2 48/3/2
f 49/3/2 50/3/2 51/3/2
f 51/3/2 50/3/2 52/3/2
f 55/3/3 54/3/3 53/3/3
f 56/3/3 54/3/3 55/3/3
f 60/3/3 58/3/3 57/3/3
f 61/3/3 58/3/3 60/3/3
f 62/3/3 60/3/3 59/3/3
f 63/3/3 60/3/3 62/3/3
f 65/3/3 64/3/3 63/3/3
f 66/3/3 64/3/3 65/3/3
f 69/4/3 68/4/3 67/4/3
f 70/4/3 68/4/3 69/4/3
f 75/4/3 72/4/3 71/4/3
f 76/4/3 72/4/3 75/4/3
f 77/4/3 74/4/3 73/4/3
f 78/4/3 74/4/3 77/4/3
f 79/4/4 80/4/4 83/4/4
f 83/4/4 80/4/4 84/4/4
f 81/4/4 82/4/4 85/4/4
f 85/4/4 82/4/4 86/4/4
f 87/4/4 88/4/4 89/4/4
f 89/4/4 88/4/4 90/4/4
f 91/3/4 92/3/4 94/3/4
f 94/3/4 92/3/4 95/3/4
f 93/3/4 94/3/4 96/3/4
f 96/3/4 94/3/4 97/3/4
f 97/3/4 98/3/4 99/3/4
f 99/3/4 98/3/4 100/3/4
f 101/3/4 102/3/4 103/3/4
f 103/3/4 102/3/4 104/3/4
f 107/3/5 106/3/5 105/3/5
f 108/3/5 106/3/5 107/3/5
f 112/3/5 110/3/5 109/3/5
f 113/3/5 110/3/5 112/3/5
f 115/3/5 112/3/5 111/3/5
f 116/3/5 112/3/5 115/3/5
f 117/3/5 114/3/5 113/3/5
f 118/3/5 114/3/5 117/3/5
f 119/3/5 117/3/5 116/3/5
f 120/3/5 117/3/5 119/3/5
f 123/4/5 122/4/5 121/4/5
f 124/4/5 122/4/5 123/4/5
f 127/4/5 126/4/5 125/4/5
f 128/4/5 126/4/5 127/4/5
f 129/3/6 130/3/6 132/3/6
f 132/3/6 130/3/6 133/3/6
f 132/2/6 133/2/6 135/2/6
f 135/2/6 133/2/6 136/2/6
f 132/2/6 135/2/6 137/2/6
f 136/2/6 133/2/6 138/2/6
f 131/3/6 132/3/6 139/3/6
f 137/2/6 138/2/6 140/2/6
f 139/3/6 132/3/6 140/3/6
f 132/2/6 137/2/6 140/2/6
f 133/3/6 134/3/6 141/3/6
f 140/2/6 138/2/6 141/2/6
f 138/2/6 133/2/6 141/2/6
f 141/3/6 134/3/6 142/3/6
f 140/3/6 141/3/6 143/3/6
f 143/3/6 141/3/6 144/3/6
f 145/4/6 146/4/6 147/4/6
f 147/4/6 146/4/6 148/4/6
f 149/4/6 150/4/6 151/4/6
f 151/4/6 150/4/6 152/4/6
f 153/4/6 154/4/6 155/4/6
f 155/4/6 154/4/6 156/4/6
