# MagicaVoxel @ Ephtracy

# group
g poster2

# material
mtllib poster2.mtl
usemtl palette

# normals
vn -1 0 0
vn 1 0 0
vn 0 0 1
vn 0 0 -1
vn 0 -1 0
vn 0 1 0

# texcoords
vt 0.841797 0.5
vt 0.958984 0.5
vt 0.994141 0.5

# verts
v -6 0 0.5
v -6 0 -0.5
v -6 12 0.5
v -6 12 -0.5
v 6 0 0.5
v 6 0 -0.5
v 6 2 0.5
v 6 2 -0.5
v 6 3 0.5
v 6 3 -0.5
v 6 12 0.5
v 6 12 -0.5
v -6 0 0.5
v -6 12 0.5
v -5 7 0.5
v -5 10 0.5
v -4 6 0.5
v -4 7 0.5
v -4 10 0.5
v -4 11 0.5
v -3 5 0.5
v -3 6 0.5
v -3 7 0.5
v -2 4 0.5
v -2 5 0.5
v -2 6 0.5
v -1 3 0.5
v -1 4 0.5
v -1 5 0.5
v -1 9 0.5
v -1 10 0.5
v -1 11 0.5
v 0 3 0.5
v 0 4 0.5
v 0 5 0.5
v 0 9 0.5
v 0 10 0.5
v 0 11 0.5
v 1 2 0.5
v 1 3 0.5
v 1 4 0.5
v 1 5 0.5
v 1 6 0.5
v 1 8 0.5
v 1 9 0.5
v 2 1 0.5
v 2 2 0.5
v 2 3 0.5
v 2 4 0.5
v 2 5 0.5
v 2 6 0.5
v 2 7 0.5
v 2 8 0.5
v 2 9 0.5
v 3 0 0.5
v 3 1 0.5
v 3 2 0.5
v 3 6 0.5
v 3 7 0.5
v 3 10 0.5
v 3 11 0.5
v 4 0 0.5
v 4 1 0.5
v 4 2 0.5
v 4 7 0.5
v 4 10 0.5
v 5 1 0.5
v 5 2 0.5
v 5 3 0.5
v 5 4 0.5
v 6 0 0.5
v 6 2 0.5
v 6 3 0.5
v 6 12 0.5
v -6 0 -0.5
v -6 12 -0.5
v -5 7 -0.5
v -5 10 -0.5
v -4 6 -0.5
v -4 7 -0.5
v -4 10 -0.5
v -4 11 -0.5
v -3 5 -0.5
v -3 6 -0.5
v -3 7 -0.5
v -2 4 -0.5
v -2 5 -0.5
v -2 6 -0.5
v -1 3 -0.5
v -1 4 -0.5
v -1 5 -0.5
v -1 9 -0.5
v -1 10 -0.5
v -1 11 -0.5
v 0 3 -0.5
v 0 4 -0.5
v 0 5 -0.5
v 0 9 -0.5
v 0 10 -0.5
v 0 11 -0.5
v 1 2 -0.5
v 1 3 -0.5
v 1 4 -0.5
v 1 5 -0.5
v 1 6 -0.5
v 1 8 -0.5
v 1 9 -0.5
v 2 1 -0.5
v 2 2 -0.5
v 2 3 -0.5
v 2 4 -0.5
v 2 5 -0.5
v 2 6 -0.5
v 2 7 -0.5
v 2 8 -0.5
v 2 9 -0.5
v 3 0 -0.5
v 3 1 -0.5
v 3 2 -0.5
v 3 6 -0.5
v 3 7 -0.5
v 3 10 -0.5
v 3 11 -0.5
v 4 0 -0.5
v 4 1 -0.5
v 4 2 -0.5
v 4 7 -0.5
v 4 10 -0.5
v 5 1 -0.5
v 5 2 -0.5
v 5 3 -0.5
v 5 4 -0.5
v 6 0 -0.5
v 6 2 -0.5
v 6 3 -0.5
v 6 12 -0.5
v -6 0 0.5
v 3 0 0.5
v 4 0 0.5
v 6 0 0.5
v -6 0 -0.5
v 3 0 -0.5
v 4 0 -0.5
v 6 0 -0.5
v -6 12 0.5
v 6 12 0.5
v -6 12 -0.5
v 6 12 -0.5

# faces
f 3/2/1 2/2/1 1/2/1
f 4/2/1 2/2/1 3/2/1
f 5/2/2 6/2/2 7/2/2
f 7/2/2 6/2/2 8/2/2
f 7/3/2 8/3/2 9/3/2
f 9/3/2 8/3/2 10/3/2
f 9/2/2 10/2/2 11/2/2
f 11/2/2 10/2/2 12/2/2
f 15/2/3 14/2/3 13/2/3
f 16/2/3 14/2/3 15/2/3
f 17/2/3 15/2/3 13/2/3
f 18/3/3 16/3/3 15/3/3
f 18/2/3 15/2/3 17/2/3
f 19/2/3 14/2/3 16/2/3
f 19/3/3 16/3/3 18/3/3
f 20/2/3 14/2/3 19/2/3
f 21/2/3 17/2/3 13/2/3
f 22/3/3 18/3/3 17/3/3
f 22/2/3 17/2/3 21/2/3
f 23/1/3 19/1/3 18/1/3
f 23/3/3 18/3/3 22/3/3
f 24/2/3 21/2/3 13/2/3
f 25/3/3 22/3/3 21/3/3
f 25/2/3 21/2/3 24/2/3
f 26/1/3 23/1/3 22/1/3
f 26/3/3 22/3/3 25/3/3
f 27/2/3 24/2/3 13/2/3
f 28/3/3 25/3/3 24/3/3
f 28/2/3 24/2/3 27/2/3
f 29/1/3 26/1/3 25/1/3
f 29/3/3 25/3/3 28/3/3
f 30/1/3 19/1/3 23/1/3
f 30/1/3 26/1/3 29/1/3
f 30/1/3 23/1/3 26/1/3
f 31/3/3 20/3/3 19/3/3
f 31/1/3 19/1/3 30/1/3
f 32/2/3 14/2/3 20/2/3
f 32/3/3 20/3/3 31/3/3
f 33/3/3 28/3/3 27/3/3
f 33/2/3 27/2/3 13/2/3
f 34/1/3 29/1/3 28/1/3
f 34/3/3 28/3/3 33/3/3
f 34/1/3 30/1/3 29/1/3
f 35/1/3 30/1/3 34/1/3
f 36/3/3 31/3/3 30/3/3
f 36/1/3 30/1/3 35/1/3
f 37/2/3 32/2/3 31/2/3
f 37/3/3 31/3/3 36/3/3
f 38/2/3 14/2/3 32/2/3
f 38/2/3 32/2/3 37/2/3
f 39/2/3 33/2/3 13/2/3
f 39/2/3 34/2/3 33/2/3
f 40/2/3 34/2/3 39/2/3
f 41/3/3 35/3/3 34/3/3
f 41/2/3 34/2/3 40/2/3
f 42/1/3 37/1/3 36/1/3
f 42/3/3 35/3/3 41/3/3
f 42/1/3 36/1/3 35/1/3
f 43/1/3 37/1/3 42/1/3
f 44/1/3 37/1/3 43/1/3
f 45/1/3 37/1/3 44/1/3
f 46/2/3 39/2/3 13/2/3
f 47/3/3 40/3/3 39/3/3
f 47/2/3 39/2/3 46/2/3
f 48/2/3 41/2/3 40/2/3
f 48/3/3 40/3/3 47/3/3
f 48/2/3 42/2/3 41/2/3
f 49/2/3 42/2/3 48/2/3
f 50/3/3 43/3/3 42/3/3
f 50/2/3 42/2/3 49/2/3
f 51/1/3 44/1/3 43/1/3
f 51/3/3 43/3/3 50/3/3
f 52/1/3 44/1/3 51/1/3
f 53/2/3 45/2/3 44/2/3
f 53/1/3 44/1/3 52/1/3
f 54/1/3 37/1/3 45/1/3
f 54/2/3 45/2/3 53/2/3
f 55/2/3 46/2/3 13/2/3
f 56/3/3 47/3/3 46/3/3
f 56/2/3 46/2/3 55/2/3
f 57/1/3 48/1/3 47/1/3
f 57/3/3 47/3/3 56/3/3
f 58/3/3 52/3/3 51/3/3
f 58/2/3 50/2/3 49/2/3
f 58/2/3 51/2/3 50/2/3
f 59/1/3 53/1/3 52/1/3
f 59/3/3 52/3/3 58/3/3
f 59/1/3 54/1/3 53/1/3
f 60/1/3 37/1/3 54/1/3
f 60/1/3 54/1/3 59/1/3
f 60/3/3 38/3/3 37/3/3
f 61/2/3 14/2/3 38/2/3
f 61/3/3 38/3/3 60/3/3
f 62/3/3 56/3/3 55/3/3
f 63/1/3 57/1/3 56/1/3
f 63/3/3 56/3/3 62/3/3
f 64/1/3 48/1/3 57/1/3
f 64/1/3 57/1/3 63/1/3
f 65/3/3 60/3/3 59/3/3
f 65/2/3 59/2/3 58/2/3
f 66/2/3 61/2/3 60/2/3
f 66/3/3 60/3/3 65/3/3
f 67/3/3 64/3/3 63/3/3
f 67/2/3 63/2/3 62/2/3
f 68/1/3 48/1/3 64/1/3
f 68/3/3 64/3/3 67/3/3
f 69/3/3 49/3/3 48/3/3
f 69/1/3 48/1/3 68/1/3
f 70/2/3 58/2/3 49/2/3
f 70/3/3 49/3/3 69/3/3
f 70/2/3 66/2/3 65/2/3
f 70/2/3 65/2/3 58/2/3
f 71/2/3 67/2/3 62/2/3
f 71/2/3 68/2/3 67/2/3
f 72/3/3 69/3/3 68/3/3
f 72/2/3 68/2/3 71/2/3
f 73/2/3 70/2/3 69/2/3
f 73/3/3 69/3/3 72/3/3
f 74/2/3 66/2/3 70/2/3
f 74/2/3 70/2/3 73/2/3
f 74/2/3 61/2/3 66/2/3
f 74/2/3 14/2/3 61/2/3
f 75/2/4 76/2/4 77/2/4
f 77/2/4 76/2/4 78/2/4
f 75/2/4 77/2/4 79/2/4
f 77/3/4 78/3/4 80/3/4
f 79/2/4 77/2/4 80/2/4
f 78/2/4 76/2/4 81/2/4
f 80/3/4 78/3/4 81/3/4
f 81/2/4 76/2/4 82/2/4
f 75/2/4 79/2/4 83/2/4
f 79/3/4 80/3/4 84/3/4
f 83/2/4 79/2/4 84/2/4
f 80/1/4 81/1/4 85/1/4
f 84/3/4 80/3/4 85/3/4
f 75/2/4 83/2/4 86/2/4
f 83/3/4 84/3/4 87/3/4
f 86/2/4 83/2/4 87/2/4
f 84/1/4 85/1/4 88/1/4
f 87/3/4 84/3/4 88/3/4
f 75/2/4 86/2/4 89/2/4
f 86/3/4 87/3/4 90/3/4
f 89/2/4 86/2/4 90/2/4
f 87/1/4 88/1/4 91/1/4
f 90/3/4 87/3/4 91/3/4
f 85/1/4 81/1/4 92/1/4
f 91/1/4 88/1/4 92/1/4
f 88/1/4 85/1/4 92/1/4
f 81/3/4 82/3/4 93/3/4
f 92/1/4 81/1/4 93/1/4
f 82/2/4 76/2/4 94/2/4
f 93/3/4 82/3/4 94/3/4
f 89/3/4 90/3/4 95/3/4
f 75/2/4 89/2/4 95/2/4
f 90/1/4 91/1/4 96/1/4
f 95/3/4 90/3/4 96/3/4
f 91/1/4 92/1/4 96/1/4
f 96/1/4 92/1/4 97/1/4
f 92/3/4 93/3/4 98/3/4
f 97/1/4 92/1/4 98/1/4
f 93/2/4 94/2/4 99/2/4
f 98/3/4 93/3/4 99/3/4
f 94/2/4 76/2/4 100/2/4
f 99/2/4 94/2/4 100/2/4
f 75/2/4 95/2/4 101/2/4
f 95/2/4 96/2/4 101/2/4
f 101/2/4 96/2/4 102/2/4
f 96/3/4 97/3/4 103/3/4
f 102/2/4 96/2/4 103/2/4
f 98/1/4 99/1/4 104/1/4
f 103/3/4 97/3/4 104/3/4
f 97/1/4 98/1/4 104/1/4
f 104/1/4 99/1/4 105/1/4
f 105/1/4 99/1/4 106/1/4
f 106/1/4 99/1/4 107/1/4
f 75/2/4 101/2/4 108/2/4
f 101/3/4 102/3/4 109/3/4
f 108/2/4 101/2/4 109/2/4
f 102/2/4 103/2/4 110/2/4
f 109/3/4 102/3/4 110/3/4
f 103/2/4 104/2/4 110/2/4
f 110/2/4 104/2/4 111/2/4
f 104/3/4 105/3/4 112/3/4
f 111/2/4 104/2/4 112/2/4
f 105/1/4 106/1/4 113/1/4
f 112/3/4 105/3/4 113/3/4
f 113/1/4 106/1/4 114/1/4
f 106/2/4 107/2/4 115/2/4
f 114/1/4 106/1/4 115/1/4
f 107/1/4 99/1/4 116/1/4
f 115/2/4 107/2/4 116/2/4
f 75/2/4 108/2/4 117/2/4
f 108/3/4 109/3/4 118/3/4
f 117/2/4 108/2/4 118/2/4
f 109/1/4 110/1/4 119/1/4
f 118/3/4 109/3/4 119/3/4
f 113/3/4 114/3/4 120/3/4
f 111/2/4 112/2/4 120/2/4
f 112/2/4 113/2/4 120/2/4
f 114/1/4 115/1/4 121/1/4
f 120/3/4 114/3/4 121/3/4
f 115/1/4 116/1/4 121/1/4
f 116/1/4 99/1/4 122/1/4
f 121/1/4 116/1/4 122/1/4
f 99/3/4 100/3/4 122/3/4
f 100/2/4 76/2/4 123/2/4
f 122/3/4 100/3/4 123/3/4
f 117/3/4 118/3/4 124/3/4
f 118/1/4 119/1/4 125/1/4
f 124/3/4 118/3/4 125/3/4
f 119/1/4 110/1/4 126/1/4
f 125/1/4 119/1/4 126/1/4
f 121/3/4 122/3/4 127/3/4
f 120/2/4 121/2/4 127/2/4
f 122/2/4 123/2/4 128/2/4
f 127/3/4 122/3/4 128/3/4
f 125/3/4 126/3/4 129/3/4
f 124/2/4 125/2/4 129/2/4
f 126/1/4 110/1/4 130/1/4
f 129/3/4 126/3/4 130/3/4
f 110/3/4 111/3/4 131/3/4
f 130/1/4 110/1/4 131/1/4
f 111/2/4 120/2/4 132/2/4
f 131/3/4 111/3/4 132/3/4
f 127/2/4 128/2/4 132/2/4
f 120/2/4 127/2/4 132/2/4
f 124/2/4 129/2/4 133/2/4
f 129/2/4 130/2/4 133/2/4
f 130/3/4 131/3/4 134/3/4
f 133/2/4 130/2/4 134/2/4
f 131/2/4 132/2/4 135/2/4
f 134/3/4 131/3/4 135/3/4
f 132/2/4 128/2/4 136/2/4
f 135/2/4 132/2/4 136/2/4
f 128/2/4 123/2/4 136/2/4
f 123/2/4 76/2/4 136/2/4
f 141/2/5 138/2/5 137/2/5
f 142/3/5 139/3/5 138/3/5
f 142/2/5 138/2/5 141/2/5
f 143/2/5 140/2/5 139/2/5
f 143/3/5 139/3/5 142/3/5
f 144/2/5 140/2/5 143/2/5
f 145/2/6 146/2/6 147/2/6
f 147/2/6 146/2/6 148/2/6
